<?xml version="1.0" standalone="no"?>
<!DOCTYPE svg PUBLIC "-//W3C//DTD SVG 20010904//EN"
 "http://www.w3.org/TR/2001/REC-SVG-20010904/DTD/svg10.dtd">
<svg version="1.0" xmlns="http://www.w3.org/2000/svg"
 width="500.000000pt" height="500.000000pt" viewBox="0 0 500.000000 500.000000"
 preserveAspectRatio="xMidYMid meet">
<metadata>
Created by potrace 1.11, written by Peter Selinger 2001-2013
</metadata>
<g transform="translate(0.000000,500.000000) scale(0.100000,-0.100000)"
fill="#000000" stroke="none">
<path d="M2645 3793 c-45 -5 -117 -25 -140 -39 -13 -9 -85 -15 -210 -20 -209
-7 -205 -6 -320 -85 -71 -48 -117 -88 -132 -112 -4 -8 -46 -40 -93 -72 -47
-31 -101 -72 -120 -90 -24 -22 -53 -36 -92 -44 -32 -7 -58 -16 -58 -20 0 -5
-14 -11 -30 -15 -17 -3 -30 -11 -28 -18 4 -21 -22 -61 -64 -99 -25 -22 -39
-42 -37 -53 4 -16 7 -15 33 9 15 14 30 24 33 21 9 -9 -8 -46 -22 -46 -7 0 -15
-5 -17 -11 -3 -8 -10 -8 -27 2 -20 13 -24 12 -45 -12 -13 -15 -33 -32 -45 -38
-11 -7 -21 -16 -21 -22 0 -6 -11 -25 -25 -43 -14 -18 -25 -42 -25 -53 0 -11
-13 -52 -29 -90 -16 -39 -32 -85 -36 -102 -8 -36 -87 -192 -121 -237 -35 -47
-55 -110 -64 -196 -4 -42 -11 -81 -14 -86 -5 -9 -42 -213 -53 -298 -4 -30 0
-49 12 -68 10 -15 15 -30 11 -34 -4 -3 -11 0 -16 8 -6 8 -10 11 -11 5 0 -5 -3
-19 -5 -30 -2 -11 -9 -63 -14 -115 -5 -52 -16 -126 -25 -165 -8 -38 -18 -120
-20 -182 -5 -104 -4 -113 14 -122 28 -16 149 -13 207 3 61 18 133 14 150 -8
11 -16 39 -16 350 -6 187 7 341 12 344 13 3 0 31 -5 63 -12 93 -20 87 -27 134
154 15 56 70 184 84 195 3 3 13 19 22 36 9 17 40 51 69 75 51 43 80 56 178 79
40 10 79 26 160 66 54 26 198 82 245 94 59 16 173 66 195 85 25 22 131 72 190
90 59 17 142 55 201 91 19 12 64 29 99 38 36 9 79 25 96 35 51 30 154 62 230
71 40 4 76 10 81 13 5 3 41 13 80 21 106 22 128 36 152 100 15 42 19 71 16
121 -4 68 -18 129 -34 154 -13 20 -117 23 -161 4 -19 -8 -66 -19 -104 -24 -38
-5 -83 -18 -103 -30 -19 -12 -53 -23 -76 -24 -79 -6 -196 -25 -237 -40 -23 -8
-44 -14 -48 -14 -19 3 -33 -2 -28 -10 3 -5 30 -8 58 -6 64 3 95 -9 77 -31 -9
-11 -9 -23 0 -53 18 -62 10 -79 -22 -46 -13 13 -16 13 -21 -1 -10 -26 -34 2
-38 43 -2 20 -9 38 -17 41 -10 3 -12 -6 -10 -42 5 -51 -13 -59 -21 -10 -3 18
-12 30 -24 32 -16 4 -18 0 -13 -27 4 -17 4 -31 1 -31 -17 0 -94 23 -94 29 0 3
-4 13 -10 21 -7 12 -13 9 -34 -13 -24 -26 -26 -26 -26 -8 0 14 -7 21 -18 21
-11 0 -27 9 -38 21 -15 17 -20 18 -29 6 -16 -22 -64 -30 -71 -13 -3 8 -22 20
-42 27 -21 6 -41 14 -47 18 -5 3 -14 6 -20 7 -5 0 -16 2 -22 2 -7 1 -12 5 -12
10 1 4 1 15 0 25 -2 27 -21 20 -21 -9 0 -20 -4 -25 -16 -20 -9 3 -18 6 -20 6
-2 0 -4 11 -4 25 0 16 -6 25 -15 25 -8 0 -15 -9 -15 -20 0 -31 -17 -24 -23 10
-4 17 -11 30 -17 30 -5 0 -10 -13 -10 -30 0 -23 -5 -30 -19 -30 -10 0 -21 7
-25 15 -7 19 -26 20 -26 1 0 -14 -48 -26 -107 -26 -17 0 -35 -5 -39 -11 -3 -6
-18 -9 -33 -6 -19 4 -33 -1 -51 -20 l-24 -25 -18 24 c-12 15 -16 32 -12 48 7
31 12 36 47 44 26 6 27 5 21 -19 -5 -19 -2 -25 10 -25 10 0 16 9 16 24 0 20 8
27 47 40 26 9 63 16 84 16 47 0 69 8 63 24 -3 9 6 11 32 8 22 -3 31 -7 24 -12
-17 -10 -7 -15 80 -35 41 -9 107 -28 145 -41 125 -43 176 -53 182 -38 3 8 17
14 32 14 20 0 23 -2 11 -10 -17 -11 -13 -15 21 -23 20 -5 28 -1 43 23 9 17 25
30 34 30 18 0 88 23 137 45 33 15 72 22 156 29 90 7 185 35 332 97 76 33 142
59 146 59 4 0 43 27 86 61 44 34 92 67 107 75 45 23 105 89 113 122 11 51 -41
146 -114 207 -32 28 -64 60 -70 72 -10 21 -62 89 -132 173 -16 19 -29 37 -29
41 0 4 -24 16 -52 28 -29 12 -62 26 -73 31 -91 38 -103 40 -258 34 -301 -13
-335 -12 -437 14 -52 14 -104 27 -115 29 -11 3 -34 11 -50 18 -63 28 -244 48
-350 38z m105 -40 c0 -19 -3 -24 -10 -17 -6 6 -8 18 -4 27 9 24 14 21 14 -10z
m-40 -9 c0 -11 -5 -14 -16 -10 -9 3 -21 6 -27 7 -7 0 -3 4 8 9 29 13 35 12 35
-6z m207 -8 c4 -7 19 -13 33 -12 17 1 24 -4 22 -13 -2 -8 9 -27 24 -42 l28
-29 -30 0 c-17 0 -33 3 -37 6 -13 14 -86 12 -91 -2 -7 -19 -21 -18 -46 3 -28
24 -25 30 15 43 27 9 39 9 50 0 8 -6 19 -9 25 -5 16 10 -8 35 -34 35 -21 1
-21 1 -2 15 25 19 33 19 43 1z m-457 -37 c0 -7 15 -9 41 -6 35 4 42 1 46 -14
6 -21 16 -23 43 -9 13 7 21 6 30 -5 10 -12 9 -15 -8 -15 -12 0 -23 -4 -27 -10
-3 -5 -13 -6 -21 -3 -10 4 -17 -2 -21 -16 -5 -22 -33 -30 -33 -10 0 7 -10 9
-25 7 -16 -4 -29 0 -34 10 -7 13 -10 12 -15 -6 -8 -25 -46 -30 -46 -7 0 9 -12
20 -26 25 -38 15 -46 13 -34 -10 12 -22 5 -44 -11 -35 -5 4 -9 26 -9 51 0 36
3 44 19 44 10 0 24 -7 31 -15 18 -22 39 -18 52 10 11 25 48 35 48 14z m202 -1
c-9 -9 -15 -9 -24 0 -9 9 -7 12 12 12 19 0 21 -3 12 -12z m-378 -7 c8 -12 -6
-81 -16 -81 -4 0 -11 13 -14 30 -4 16 -10 27 -15 25 -4 -3 -6 -12 -3 -19 6
-17 -22 -41 -31 -26 -3 5 -4 14 0 19 7 12 -28 23 -49 15 -10 -4 -16 -1 -16 8
0 24 131 50 144 29z m781 -2 c11 -17 -1 -21 -15 -4 -8 9 -8 15 -2 15 6 0 14
-5 17 -11z m-965 -23 c0 -33 -18 -43 -35 -20 -19 25 -18 32 3 37 30 8 32 7 32
-17z m670 -1 c0 -5 -10 -10 -23 -10 -12 0 -28 -4 -34 -8 -9 -5 -13 -3 -13 7 0
8 6 17 13 20 19 8 58 2 57 -9z m380 -10 c0 -11 12 -15 45 -15 25 0 45 -4 45
-8 0 -13 -30 -72 -37 -72 -3 0 -18 14 -34 31 -28 30 -32 31 -55 18 -17 -9 -28
-10 -32 -3 -4 6 -15 13 -24 17 -29 11 -20 27 15 27 17 0 39 5 47 10 21 14 30
12 30 -5z m510 1 c0 -7 15 -21 33 -30 17 -8 26 -16 20 -17 -7 -1 -18 -2 -25
-3 -6 0 -13 -7 -16 -15 -3 -8 0 -11 6 -7 16 10 41 -4 35 -20 -3 -8 1 -14 10
-14 9 0 19 -9 22 -20 3 -11 13 -20 21 -20 8 0 14 -4 14 -10 0 -5 -4 -10 -9
-10 -17 0 -6 -71 12 -85 25 -18 21 -28 -12 -23 -21 3 -28 1 -24 -9 3 -7 11
-13 19 -13 18 0 18 -26 0 -33 -18 -7 -59 36 -62 65 -1 13 -3 26 -3 30 -1 3
-11 4 -22 1 -16 -4 -20 -2 -17 8 2 8 22 16 43 19 34 4 36 6 22 19 -10 7 -17
22 -17 32 0 22 -16 34 -24 17 -3 -9 -9 -7 -20 6 -15 19 -16 18 -16 -15 0 -19
-4 -29 -8 -23 -4 6 -18 11 -31 10 -23 -1 -61 39 -73 76 -2 6 -10 8 -17 4 -9
-6 -9 -11 0 -22 6 -8 10 -17 7 -19 -10 -10 -38 7 -38 22 0 10 -6 13 -16 9 -9
-4 -23 -1 -30 5 -11 9 -15 7 -20 -5 -9 -22 -24 -20 -24 4 0 24 41 53 64 44 9
-4 16 -1 16 6 0 7 7 10 17 6 23 -9 114 15 120 31 7 17 43 17 43 -1z m81 4 c5
0 9 -4 9 -10 0 -5 -16 -10 -36 -10 -32 0 -35 2 -24 15 7 9 20 13 27 10 8 -3
19 -5 24 -5z m-1723 -37 c-2 -9 -13 -18 -25 -19 -28 -5 -29 0 -5 24 19 21 35
18 30 -5z m660 16 c-2 -6 -8 -10 -13 -10 -5 0 -11 4 -13 10 -2 6 4 11 13 11 9
0 15 -5 13 -11z m682 -19 c0 -5 -3 -9 -7 -9 -21 3 -31 -3 -42 -27 l-12 -27
-19 21 c-35 37 -24 50 43 51 20 1 37 -3 37 -9z m404 -34 c-18 -14 -18 -15 5
-24 15 -5 20 -11 13 -16 -12 -7 -52 27 -52 44 0 6 12 10 27 10 26 0 26 -1 7
-14z m66 -7 c0 -5 -4 -9 -10 -9 -5 0 -10 7 -10 16 0 8 5 12 10 9 6 -3 10 -10
10 -16z m-1890 -14 c0 -8 -4 -15 -10 -15 -5 0 -10 7 -10 15 0 8 5 15 10 15 6
0 10 -7 10 -15z m1940 -25 c0 -5 -4 -10 -9 -10 -6 0 -13 5 -16 10 -3 6 1 10 9
10 9 0 16 -4 16 -10z m-870 -10 c0 -5 -4 -10 -10 -10 -5 0 -10 5 -10 10 0 6 5
10 10 10 6 0 10 -4 10 -10z m818 -1 c-2 -6 -8 -10 -13 -10 -5 0 -11 4 -13 10
-2 6 4 11 13 11 9 0 15 -5 13 -11z m-1918 -19 c0 -5 -8 -10 -17 -10 -15 0 -16
2 -3 10 19 12 20 12 20 0z m1625 -19 c-3 -12 -11 -19 -16 -16 -5 4 -5 14 2 26
13 26 23 18 14 -10z m-351 -3 c8 -13 7 -20 -6 -30 -20 -16 -34 -58 -19 -58 6
0 11 7 11 15 0 25 26 17 40 -12 l14 -28 6 40 c3 27 1 43 -7 48 -18 11 -16 37
2 37 24 0 57 -40 52 -61 -8 -29 12 -34 22 -6 22 57 50 36 54 -40 2 -27 7 -54
11 -61 5 -8 2 -10 -8 -6 -8 3 -19 -3 -25 -15 -16 -29 -14 -61 4 -61 8 0 15 6
15 14 0 8 7 17 16 20 8 3 12 10 9 16 -4 6 5 10 21 10 20 0 38 12 63 40 l36 40
33 -21 c24 -16 32 -28 32 -50 0 -30 9 -36 27 -18 7 7 12 6 16 -5 4 -9 2 -16
-3 -16 -6 0 -10 -9 -10 -19 0 -10 -7 -21 -15 -25 -28 -11 -37 -54 -18 -88 14
-23 15 -32 6 -35 -7 -3 -13 -11 -13 -19 0 -12 -4 -12 -20 -4 -11 6 -20 20 -20
30 0 25 -19 26 -36 3 -8 -12 -9 -22 -3 -30 7 -8 3 -25 -10 -54 -24 -49 -26
-58 -9 -41 7 7 22 12 35 12 17 0 23 -6 23 -23 0 -33 -19 -50 -38 -34 -12 9
-16 9 -19 -1 -3 -6 -8 -10 -12 -7 -5 2 -19 -7 -31 -20 -13 -14 -32 -25 -42
-25 -31 0 -33 29 -3 60 23 24 26 32 16 44 -7 8 -19 12 -27 9 -8 -3 -25 3 -37
13 -35 30 -66 45 -72 34 -3 -5 -1 -11 5 -15 17 -10 11 -25 -10 -25 -21 0 -27
-15 -10 -25 20 -12 10 -24 -12 -16 -13 5 -23 15 -23 22 0 8 -8 13 -18 13 -11
-1 -17 5 -17 18 0 13 -6 18 -19 16 -10 -2 -27 7 -37 19 -22 26 -65 35 -72 14
-3 -10 0 -12 12 -8 10 4 16 1 16 -9 0 -8 -4 -13 -9 -9 -5 3 -13 -4 -16 -16 -7
-21 -7 -21 -26 -2 -16 16 -18 24 -10 46 6 15 8 33 5 41 -3 8 -1 24 6 35 9 17
8 21 -5 21 -8 0 -15 -7 -15 -15 0 -8 -5 -15 -10 -15 -6 0 -5 -8 2 -21 11 -17
10 -22 -4 -33 -10 -7 -18 -18 -18 -24 0 -6 -8 -12 -17 -14 -20 -4 -63 13 -63
25 0 4 -4 7 -10 7 -5 0 -10 -9 -10 -20 0 -26 -20 -26 -27 -1 -5 20 -33 38 -33
21 0 -19 -17 -10 -29 16 -11 25 -11 26 19 19 25 -5 29 -4 24 9 -9 24 12 19 32
-6 16 -23 16 -22 9 12 -4 19 -8 51 -9 70 -1 28 -5 34 -19 32 -26 -4 -31 24 -8
47 27 27 31 26 31 -5 0 -16 5 -24 13 -22 18 7 20 43 2 58 -27 22 -12 62 17 44
23 -14 73 -9 86 9 15 19 47 23 58 6 4 -7 -1 -16 -10 -21 -16 -9 -16 -11 3 -25
26 -18 18 -38 -8 -21 -10 6 -26 8 -36 4 -14 -5 -16 -14 -11 -48 8 -51 11 -54
30 -39 16 13 32 -1 21 -19 -3 -5 -1 -10 5 -10 7 0 14 9 17 20 5 20 33 29 33
10 0 -5 -4 -10 -10 -10 -17 0 -11 -35 10 -58 12 -12 27 -22 35 -22 11 0 10 5
-5 20 l-20 20 25 37 c25 37 25 37 5 58 -25 27 -25 35 0 35 11 0 20 -4 20 -10
0 -5 11 -10 25 -10 37 0 30 18 -10 26 -40 7 -44 22 -15 47 15 12 19 24 14 42
-4 15 -1 32 6 40 11 13 10 18 -5 29 -20 15 -12 39 12 34 9 -2 21 -11 27 -20z
m-1324 -34 c0 -46 0 -46 -30 -42 -33 5 -40 -11 -15 -32 11 -9 19 -9 28 -2 9 8
19 5 37 -8 l25 -20 -27 0 c-23 0 -28 -4 -28 -25 0 -14 7 -28 15 -31 8 -4 15
-12 15 -20 0 -8 -7 -14 -15 -14 -8 0 -15 8 -15 18 0 10 -7 27 -15 38 -15 19
-15 19 -30 0 -20 -26 -20 -50 1 -42 11 4 14 1 10 -12 -4 -11 2 -28 14 -42 11
-13 20 -36 20 -52 0 -18 4 -27 10 -23 6 4 19 4 28 0 15 -5 14 -8 -7 -24 -23
-18 -23 -18 44 -19 74 -1 83 -5 67 -24 -11 -14 17 -58 38 -58 14 0 40 -25 40
-39 0 -6 8 -11 18 -11 17 0 62 -56 62 -77 0 -11 41 -26 49 -18 2 3 -5 15 -17
28 -12 13 -22 29 -22 35 0 15 26 16 35 2 4 -6 16 -8 27 -4 17 5 19 3 14 -18
-3 -12 -3 -17 0 -10 3 6 13 12 21 12 10 0 14 6 10 20 -4 15 0 20 14 20 10 0
19 -4 19 -9 0 -5 33 -8 74 -6 59 3 79 8 95 24 12 12 26 21 31 21 15 0 50 61
50 88 0 27 -16 29 -32 2 -7 -11 -16 -20 -20 -20 -17 0 -7 27 22 60 27 33 29
34 30 12 0 -13 4 -20 10 -17 5 3 9 29 8 56 -2 34 2 53 12 59 11 7 12 13 3 32
-19 37 -26 88 -13 88 7 0 9 8 5 19 -6 19 11 39 22 27 4 -3 6 -19 6 -36 0 -18
6 -30 13 -30 7 0 22 -10 33 -21 16 -18 18 -25 8 -46 -8 -18 -17 -23 -33 -20
-19 3 -21 1 -11 -14 9 -14 9 -21 -1 -31 -6 -6 -12 -18 -12 -25 0 -17 27 -17
33 0 2 7 8 8 13 3 5 -5 2 -13 -8 -19 -16 -11 -16 -13 6 -37 13 -14 27 -40 31
-58 7 -32 6 -33 -13 -23 -12 6 -29 11 -38 11 -15 0 -14 -4 7 -27 13 -14 19
-24 14 -20 -15 8 -39 -9 -31 -22 8 -13 36 -15 36 -2 0 15 41 20 46 6 3 -7 16
-16 30 -19 13 -4 24 -11 24 -16 0 -6 7 -10 15 -10 20 0 19 6 -6 42 -29 40 -20
44 30 12 44 -30 51 -47 24 -63 -17 -10 -17 -12 1 -26 25 -19 37 -19 30 0 -4
11 0 15 16 15 12 0 28 7 37 15 20 21 39 13 36 -14 -3 -20 0 -21 35 -15 20 3
39 7 42 7 3 0 23 -5 44 -11 27 -8 44 -8 52 -1 8 7 14 7 19 0 7 -12 95 -3 110
10 5 5 19 9 31 9 13 0 26 5 29 10 3 6 12 10 20 10 10 0 11 -7 4 -27 -21 -65
-19 -63 -73 -64 -28 0 -61 -2 -73 -5 -16 -3 -23 1 -23 11 0 19 -16 19 -27 1
-8 -15 -77 -25 -88 -14 -4 4 -32 4 -62 1 -41 -5 -57 -2 -64 8 -8 12 -10 12
-18 0 -8 -13 -17 -13 -58 -2 -50 13 -86 19 -168 28 -72 8 -277 4 -289 -6 -16
-12 -89 -35 -103 -33 -7 2 -24 -5 -37 -13 -14 -9 -30 -14 -37 -10 -6 4 -15 2
-19 -6 -5 -7 -15 -14 -23 -15 -31 -4 -57 -16 -57 -25 0 -5 -11 -9 -24 -9 -14
0 -28 -4 -31 -10 -3 -5 -17 -10 -31 -10 -13 0 -24 -4 -24 -9 0 -5 -21 -17 -47
-27 -27 -10 -55 -23 -64 -31 -8 -7 -19 -13 -23 -13 -4 0 -21 -9 -37 -21 -35
-25 -63 -19 -54 11 8 24 -7 26 -29 4 -20 -19 -54 -11 -79 20 -10 11 -16 17
-15 11 2 -5 -5 -20 -14 -33 -11 -17 -17 -20 -21 -10 -3 7 -6 4 -6 -8 -1 -20
-18 -34 -42 -34 -5 0 -9 11 -9 25 0 14 -4 25 -10 25 -5 0 -10 7 -10 15 0 8 7
15 15 15 8 0 15 -5 15 -11 0 -5 5 -7 10 -4 6 4 8 15 5 25 -4 12 2 26 17 39 26
25 44 22 41 -6 -2 -15 5 -22 23 -26 13 -2 27 0 30 4 3 5 -2 9 -11 9 -9 0 -15
6 -12 13 2 6 10 11 16 9 8 -1 9 7 5 24 -5 19 -4 25 5 20 7 -5 11 2 10 21 0 25
-1 26 -9 8 -8 -19 -9 -19 -9 2 -1 24 -23 43 -29 25 -7 -21 -18 -13 -31 23 -7
20 -17 32 -23 29 -7 -4 -6 -9 2 -14 8 -5 10 -18 6 -33 -4 -16 -1 -29 9 -37 8
-7 15 -20 15 -29 0 -12 -2 -13 -8 -3 -12 18 -98 -65 -104 -100 -3 -15 -2 -26
1 -25 7 2 11 -7 11 -28 0 -8 -7 -15 -15 -15 -8 0 -15 7 -15 15 0 8 -5 15 -11
15 -8 0 -8 4 0 14 12 14 13 97 1 117 -16 25 -32 -4 -27 -47 5 -50 -1 -61 -19
-36 -12 16 -13 15 -14 -5 0 -12 5 -25 10 -28 13 -8 13 -65 0 -65 -10 0 -8 -47
4 -92 6 -20 3 -31 -13 -44 -15 -13 -18 -22 -10 -36 5 -10 17 -18 25 -18 8 0
12 -4 9 -10 -3 -5 -19 -10 -36 -10 -23 0 -29 4 -29 21 0 27 -19 61 -30 54 -5
-3 -12 4 -15 16 -9 26 3 91 15 84 4 -3 15 -2 24 1 12 5 16 20 16 58 l-1 51
-15 -35 c-19 -44 -21 -45 -38 -31 -12 10 -15 5 -21 -30 -9 -54 -24 -38 -31 34
-4 49 -2 58 13 64 29 11 47 34 51 65 2 22 -1 28 -15 28 -13 0 -19 9 -20 32 -3
42 -23 62 -23 23 0 -50 11 -75 31 -75 11 0 19 -3 19 -7 -1 -16 -28 -43 -44
-43 -19 0 -21 11 -4 28 8 8 8 15 1 24 -6 7 -13 40 -15 73 -2 51 -1 60 13 57
19 -3 31 41 22 77 -3 12 -1 21 6 21 6 0 11 11 11 24 0 13 7 26 15 30 11 4 14
13 9 31 -5 19 -2 25 10 25 12 0 16 -10 16 -35 0 -25 -4 -35 -15 -35 -13 0 -15
-7 -9 -35 5 -27 2 -41 -11 -55 -10 -11 -16 -22 -13 -25 9 -9 39 7 35 19 -2 6
1 16 7 22 8 9 15 9 26 -1 11 -10 20 -11 30 -4 12 7 11 10 -7 15 -14 4 -23 14
-24 28 0 11 -1 66 -2 121 -2 99 -1 101 26 124 23 19 28 20 33 7 3 -9 3 -39 0
-67 -5 -37 -3 -50 5 -47 13 4 18 20 26 80 3 21 11 42 19 48 20 18 37 1 30 -31
-3 -15 -1 -31 4 -34 6 -3 10 3 10 14 0 11 10 29 22 41 13 12 22 33 22 53 1 27
5 32 28 35 21 3 27 0 22 -11 -3 -8 -1 -18 5 -22 6 -3 11 -15 11 -26 0 -10 5
-19 11 -19 7 0 8 11 3 33 -4 17 -7 40 -6 49 0 10 -3 20 -8 23 -10 6 93 115
108 115 5 0 19 11 32 25 36 38 50 32 50 -21z m696 22 c9 -9 10 -17 4 -21 -5
-3 -10 -17 -10 -31 0 -14 -6 -24 -14 -24 -10 0 -13 11 -11 43 4 56 6 58 31 33z
m54 4 c0 -5 -4 -10 -10 -10 -5 0 -10 5 -10 10 0 6 5 10 10 10 6 0 10 -4 10
-10z m980 -32 c0 -5 -5 -8 -11 -8 -7 0 -18 -8 -26 -17 -12 -16 -13 -14 -7 17
3 19 9 39 11 43 5 8 32 -21 33 -35z m-1285 12 c36 -39 37 -103 3 -166 -19 -37
-28 -44 -53 -44 -16 0 -47 -4 -67 -9 -33 -8 -37 -7 -40 13 -2 14 -10 21 -26
21 -35 1 -44 25 -28 79 21 69 43 98 67 91 11 -4 27 -1 35 6 21 17 27 5 25 -49
-3 -86 48 -163 65 -98 7 30 1 135 -10 159 -11 23 7 22 29 -3z m-310 -31 c9
-17 14 -33 11 -36 -4 -4 -36 49 -36 62 0 13 11 2 25 -26z m993 -16 c2 -8 -5
-13 -17 -13 -12 0 -21 6 -21 16 0 18 31 15 38 -3z m497 7 c3 -6 -1 -17 -9 -26
-9 -8 -16 -19 -16 -22 0 -9 -41 -35 -46 -29 -3 2 3 20 13 38 25 47 45 60 58
39z m-1516 -42 c1 -5 -6 -8 -14 -8 -15 0 -21 31 -8 44 7 6 20 -17 22 -36z
m816 22 c3 -5 1 -10 -4 -10 -6 0 -11 5 -11 10 0 6 2 10 4 10 3 0 8 -4 11 -10z
m-102 -33 c10 -4 15 -11 12 -17 -8 -13 -35 -13 -35 -1 0 5 -3 18 -6 28 -3 11
-2 14 3 7 4 -6 16 -13 26 -17z m907 3 c0 -5 -2 -10 -4 -10 -3 0 -8 5 -11 10
-3 6 -1 10 4 10 6 0 11 -4 11 -10z m275 -10 c3 -5 -1 -10 -9 -10 -8 0 -18 5
-21 10 -3 6 1 10 9 10 8 0 18 -4 21 -10z m-775 -20 c0 -5 -4 -10 -9 -10 -6 0
-13 5 -16 10 -3 6 1 10 9 10 9 0 16 -4 16 -10z m557 4 c-3 -3 -12 -4 -19 -1
-8 3 -5 6 6 6 11 1 17 -2 13 -5z m188 -24 c3 -5 2 -10 -4 -10 -5 0 -13 5 -16
10 -3 6 -2 10 4 10 5 0 13 -4 16 -10z m-1048 -42 c-3 -8 -6 -5 -6 6 -1 11 2
17 5 13 3 -3 4 -12 1 -19z m973 13 c0 -6 -4 -13 -10 -16 -5 -3 -10 1 -10 9 0
9 5 16 10 16 6 0 10 -4 10 -9z m-2275 -31 c3 -5 -1 -10 -9 -10 -9 0 -16 5 -16
10 0 6 4 10 9 10 6 0 13 -4 16 -10z m570 -19 c-3 -12 -11 -19 -16 -16 -5 4 -3
14 3 25 15 24 22 19 13 -9z m-138 -58 c-4 -3 -13 1 -20 9 -11 11 -12 19 -4 33
10 18 11 18 20 -8 5 -16 7 -31 4 -34z m849 22 c-17 -17 -21 -9 -10 20 5 11 10
13 17 6 6 -6 4 -15 -7 -26z m49 5 c10 -16 -5 -50 -19 -44 -8 3 -11 15 -8 30 5
25 16 31 27 14z m949 -5 c-6 -16 -24 -21 -24 -7 0 11 11 22 21 22 5 0 6 -7 3
-15z m-174 -5 c0 -5 -5 -10 -11 -10 -5 0 -7 5 -4 10 3 6 8 10 11 10 2 0 4 -4
4 -10z m347 -12 c13 -12 23 -33 23 -48 0 -26 -2 -27 -32 -21 -30 6 -33 10 -36
49 -4 48 9 54 45 20z m128 12 c3 -5 -1 -10 -10 -10 -9 0 -13 5 -10 10 3 6 8
10 10 10 2 0 7 -4 10 -10z m-1995 -15 c9 -9 44 -19 76 -23 56 -7 79 -27 32
-27 -13 0 -26 -3 -29 -8 -10 -14 -84 8 -94 29 -6 11 -16 19 -23 16 -6 -2 -12
3 -12 12 0 20 28 21 50 1z m202 -15 c-12 -12 -22 -26 -22 -33 0 -7 -5 -4 -11
6 -13 23 4 47 34 47 21 0 21 0 -1 -20z m184 8 c-3 -7 -9 -21 -12 -30 -4 -10
-10 -18 -15 -18 -13 0 -11 34 3 48 16 16 31 15 24 0z m1216 -10 c-7 -7 -12 -8
-12 -2 0 6 3 14 7 17 3 4 9 5 12 2 2 -3 -1 -11 -7 -17z m176 -3 c17 -36 15
-49 -8 -70 -15 -14 -23 -16 -32 -7 -8 8 -8 15 1 25 9 11 8 17 -3 27 -12 9 -13
16 -3 31 16 26 32 24 45 -6z m-1888 -36 c0 -12 -5 -16 -15 -13 -8 4 -15 15
-15 25 0 12 5 16 15 13 8 -4 15 -15 15 -25z m560 21 c0 -5 -9 -14 -20 -20 -16
-8 -20 -8 -20 4 0 13 13 23 33 25 4 1 7 -3 7 -9z m1241 -12 c13 -20 10 -38 -6
-38 -17 0 -20 -25 -5 -35 16 -10 2 -25 -23 -25 -16 0 -18 3 -9 12 19 19 14 30
-10 23 -17 -6 -20 -4 -15 10 4 9 7 29 7 44 0 25 3 28 26 25 15 -1 31 -9 35
-16z m-1421 -3 c0 -8 -4 -15 -9 -15 -5 0 -11 7 -15 15 -3 9 0 15 9 15 8 0 15
-7 15 -15z m-50 -19 c0 -20 -26 -40 -35 -26 -10 16 2 40 20 40 8 0 15 -6 15
-14z m115 -14 c-8 -8 -25 10 -19 20 4 6 9 5 15 -3 4 -7 6 -15 4 -17z m1225 20
c0 -4 -9 -13 -20 -20 -22 -13 -27 -3 -8 16 14 14 28 16 28 4z m-910 -23 c0 -5
-4 -9 -10 -9 -5 0 -10 7 -10 16 0 8 5 12 10 9 6 -3 10 -10 10 -16z m948 -11
c-4 -27 -28 -36 -28 -10 0 20 8 32 22 32 5 0 8 -10 6 -22z m-1428 2 c0 -5 -7
-7 -15 -4 -8 4 -15 8 -15 10 0 2 7 4 15 4 8 0 15 -4 15 -10z m120 2 c0 -13
-12 -22 -22 -16 -10 6 -1 24 13 24 5 0 9 -4 9 -8z m100 4 c0 -3 -4 -8 -10 -11
-5 -3 -10 -1 -10 4 0 6 5 11 10 11 6 0 10 -2 10 -4z m-326 -32 c25 -10 19 -22
-9 -16 -14 2 -25 8 -25 13 0 10 12 11 34 3z m1386 -3 c0 -5 -7 -14 -15 -21
-12 -10 -15 -10 -15 2 0 8 3 18 7 21 9 10 23 9 23 -2z m84 -23 c-1 -18 -3 -36
-3 -40 -1 -12 -59 -9 -66 2 -10 16 22 58 47 63 13 2 24 5 24 6 1 0 0 -14 -2
-31z m-1196 2 c-9 -14 -14 -16 -20 -7 -13 20 -9 27 12 27 18 0 19 -3 8 -20z
m-218 -5 c0 -8 -4 -15 -10 -15 -5 0 -7 7 -4 15 4 8 8 15 10 15 2 0 4 -7 4 -15z
m290 7 c0 -12 -39 -46 -45 -41 -6 7 24 49 36 49 5 0 9 -4 9 -8z m623 -6 c15
-12 16 -17 6 -34 -12 -20 -13 -20 -30 1 -9 12 -14 27 -12 34 6 16 13 16 36 -1z
m-799 -17 c-3 -5 -10 -7 -15 -3 -5 3 -7 10 -3 15 3 5 10 7 15 3 5 -3 7 -10 3
-15z m59 -3 c7 -16 -1 -26 -20 -26 -7 0 -13 9 -13 20 0 23 25 27 33 6z m967
-39 c0 -5 -7 -6 -16 -3 -9 3 -18 6 -20 6 -2 0 -4 7 -4 15 0 13 3 13 20 3 11
-7 20 -17 20 -21z m-2073 -29 c-3 -8 -6 -5 -6 6 -1 11 2 17 5 13 3 -3 4 -12 1
-19z m2030 6 c-3 -3 -12 -4 -19 -1 -8 3 -5 6 6 6 11 1 17 -2 13 -5z m-2022
-55 c4 -6 4 -13 0 -17 -4 -4 -10 -2 -12 5 -2 7 -11 9 -20 6 -11 -4 -14 -2 -9
5 9 15 33 16 41 1z m45 7 c0 -3 -4 -8 -10 -11 -5 -3 -10 -1 -10 4 0 6 5 11 10
11 6 0 10 -2 10 -4z m-51 -68 c-1 -18 2 -51 6 -73 5 -22 7 -65 6 -95 -1 -30
-1 -69 -1 -86 1 -46 -27 -40 -34 8 -7 42 -20 49 -36 19 -7 -13 -7 -22 0 -26 5
-3 10 -20 10 -37 l0 -31 -20 26 c-21 27 -40 127 -24 127 5 0 15 -9 22 -20 12
-19 14 -19 42 -5 30 16 44 52 15 41 -8 -3 -15 -1 -15 4 0 6 5 10 10 10 17 0
11 52 -11 100 -19 42 -19 45 -3 57 27 20 34 16 33 -19z m-62 -28 c8 -118 8
-150 1 -150 -4 0 -8 9 -8 19 0 10 -7 21 -15 25 -26 10 -40 53 -24 72 7 9 12
30 10 46 -2 24 1 29 15 26 13 -2 19 -14 21 -38z m-57 -147 c0 -31 -4 -43 -12
-40 -7 2 -13 10 -13 18 0 8 -4 19 -8 26 -4 7 -5 24 -1 38 10 41 34 12 34 -42z
m1953 -5 c14 -9 -19 -58 -38 -58 -8 0 -15 7 -15 15 0 8 7 15 15 15 8 0 15 5
15 10 0 6 -5 10 -10 10 -7 0 -6 8 1 22 10 18 13 20 17 8 3 -8 10 -18 15 -22z
m-147 -5 c-10 -10 -19 5 -10 18 6 11 8 11 12 0 2 -7 1 -15 -2 -18z m-895 -3
c-22 -19 -51 -27 -51 -15 0 6 59 34 70 34 3 0 -6 -9 -19 -19z m-351 -45 c43
-31 50 -43 50 -80 0 -21 -3 -26 -9 -16 -7 11 -15 9 -41 -10 -23 -17 -34 -20
-37 -11 -7 17 -30 15 -42 -5 -8 -14 -13 -15 -35 -5 -24 10 -26 10 -26 -10 0
-20 -1 -20 -18 -5 -25 23 -39 21 -18 -2 11 -12 14 -21 7 -26 -20 -12 -11 -25
18 -25 21 0 32 6 36 20 3 11 11 20 16 20 6 0 8 -4 5 -9 -3 -5 3 -11 14 -14 32
-8 24 -27 -9 -21 -30 6 -51 -10 -26 -20 9 -3 15 -17 14 -33 0 -19 -3 -23 -7
-13 -15 34 -38 57 -64 64 -16 3 -28 13 -28 21 0 19 -8 19 -27 0 -24 -25 -27
-9 -4 23 12 17 21 38 21 49 0 10 4 24 9 32 8 12 12 12 25 2 8 -7 21 -9 27 -5
7 4 9 3 5 -4 -11 -18 15 -25 31 -9 14 14 14 17 -2 34 -13 12 -20 14 -22 6 -3
-9 -9 -10 -23 -1 -21 13 -16 38 8 38 8 0 24 -7 34 -17 17 -15 18 -15 18 10 0
49 49 60 100 22z m631 13 c0 -7 2 -32 4 -55 3 -35 0 -42 -18 -47 -14 -3 -29 1
-41 13 -19 20 -15 41 10 41 16 0 19 16 4 25 -5 3 -7 12 -3 20 6 18 43 20 44 3z
m-215 -55 c0 -27 1 -61 4 -78 5 -29 4 -30 -30 -29 -19 1 -45 5 -57 9 -17 5
-23 3 -23 -8 0 -17 -40 -30 -64 -21 -9 3 -23 0 -32 -7 -12 -10 -18 -9 -32 5
-16 16 -16 17 2 10 16 -6 18 -4 13 10 -6 15 -3 17 17 12 19 -5 28 -1 36 15 15
27 7 34 -38 34 -25 0 -37 5 -39 15 -4 19 87 52 137 51 20 -1 45 5 55 14 38 28
52 19 51 -32z m114 28 c5 -11 10 -38 10 -61 0 -33 -4 -42 -25 -52 -19 -8 -28
-8 -40 2 -19 16 -19 30 -1 30 7 0 19 6 25 14 16 20 -14 30 -33 11 -12 -13 -15
-13 -20 0 -3 8 -3 22 -1 30 3 8 7 22 10 30 7 23 62 19 75 -4z m-1098 -8 c10
-9 18 -21 18 -26 0 -6 7 -19 17 -29 14 -16 14 -18 0 -18 -9 0 -18 8 -22 19 -3
10 -14 26 -25 36 -20 18 -26 35 -13 35 3 0 15 -7 25 -17z m2608 -2 c0 -8 -29
-37 -31 -30 -7 35 -6 39 12 39 10 0 19 -4 19 -9z m-2650 -49 c5 -21 10 -47 10
-59 0 -19 5 -22 34 -21 27 1 36 6 41 25 4 19 12 23 40 23 24 0 35 -5 35 -15 0
-8 20 -34 45 -58 25 -24 45 -49 45 -56 0 -6 7 -11 16 -11 11 0 14 -6 9 -21 -4
-12 -1 -27 8 -37 13 -15 11 -20 -12 -42 -28 -26 -72 -33 -79 -12 -2 6 -10 12
-19 12 -21 0 -60 33 -56 47 2 6 -1 14 -6 18 -6 3 -11 0 -11 -7 0 -7 -6 -4 -12
7 -7 11 -11 21 -9 23 1 2 -4 14 -13 26 -14 22 -14 24 7 30 26 7 13 23 -23 28
-22 3 -25 0 -22 -27 8 -71 69 -151 149 -193 25 -14 74 -62 102 -100 28 -40 13
-63 -33 -49 -23 8 -32 16 -28 26 4 11 -1 13 -21 7 -26 -6 -46 7 -27 19 7 5 5
12 -7 21 -27 20 -34 17 -27 -11 l6 -26 -48 32 c-56 38 -94 75 -94 92 0 7 10 0
21 -15 25 -34 30 -34 48 -7 11 19 11 21 -2 16 -22 -8 -50 38 -43 69 5 17 -1
39 -15 64 -18 32 -20 42 -9 55 10 12 10 15 -2 15 -8 0 -18 -4 -23 -9 -6 -6
-11 3 -12 25 -1 19 3 34 8 34 5 0 9 5 9 10 0 6 -6 10 -12 10 -9 0 -12 14 -11
42 1 24 2 44 2 45 1 1 8 0 16 -3 8 -3 19 -22 25 -42z m1570 14 c0 -19 -7 -39
-16 -47 -14 -11 -18 -10 -30 6 -14 19 -15 19 -36 -3 -19 -19 -20 -22 -5 -22
29 0 19 -18 -15 -25 -26 -6 -35 -4 -46 14 -8 11 -22 21 -31 21 -17 0 -44 34
-34 43 3 3 16 -1 30 -10 15 -10 27 -13 31 -7 4 6 16 11 27 12 48 3 100 18 101
30 2 20 4 22 14 22 6 0 10 -15 10 -34z m1008 -2 c-17 -18 -38 -11 -38 11 0 16
31 25 45 13 5 -5 3 -14 -7 -24z m-73 -32 c-6 -16 -7 -16 -16 1 -8 13 -7 23 3
34 12 15 13 15 16 -1 2 -9 1 -25 -3 -34z m-58 26 c11 -14 25 -88 17 -88 -19 0
-43 25 -49 50 -10 43 10 66 32 38z m-2253 -33 c7 -28 6 -29 -10 -13 -10 10
-14 23 -10 34 8 21 11 17 20 -21z m1456 25 c0 -5 -7 -10 -15 -10 -8 0 -15 5
-15 10 0 6 7 10 15 10 8 0 15 -4 15 -10z m88 -17 c5 -18 -23 -16 -39 3 -11 14
-10 15 11 12 13 -1 25 -9 28 -15z m-1808 -18 c-7 -9 -15 -13 -17 -11 -7 7 7
26 19 26 6 0 6 -6 -2 -15z m308 -12 c-5 -25 -28 -28 -28 -4 0 12 6 21 16 21 9
0 14 -7 12 -17z m1412 -5 c0 -6 -6 -5 -15 2 -8 7 -15 14 -15 16 0 2 7 1 15 -2
8 -4 15 -11 15 -16z m375 11 c10 -16 3 -16 -35 -3 l-35 13 32 0 c17 1 35 -4
38 -10z m-145 -20 c0 -5 -4 -9 -10 -9 -5 0 -10 7 -10 16 0 8 5 12 10 9 6 -3
10 -10 10 -16z m-540 1 c0 -5 -2 -10 -4 -10 -3 0 -8 5 -11 10 -3 6 -1 10 4 10
6 0 11 -4 11 -10z m633 -28 c8 -11 5 -12 -19 -6 -45 11 -49 16 -23 30 18 9 25
10 28 1 2 -7 8 -18 14 -25z m-393 18 c0 -5 -7 -10 -15 -10 -8 0 -15 5 -15 10
0 6 7 10 15 10 8 0 15 -4 15 -10z m563 -2 c12 -7 24 -14 26 -15 2 -2 -8 -14
-23 -28 -21 -20 -28 -22 -31 -10 -3 8 -7 22 -10 31 -5 15 1 34 11 34 2 0 14
-6 27 -12z m-2233 -117 c0 -20 -2 -22 -16 -10 -10 8 -12 15 -5 17 7 2 6 11 -4
25 -16 22 -20 68 -8 81 8 7 32 -76 33 -113z m830 94 c0 -15 -40 -30 -62 -23
-7 3 0 11 17 20 39 21 45 21 45 3z m1320 0 c0 -10 -10 -15 -30 -15 -20 0 -30
5 -30 15 0 10 10 15 30 15 20 0 30 -5 30 -15z m-328 -27 c-15 -15 -26 -4 -18
18 5 13 9 15 18 6 9 -9 9 -15 0 -24z m478 1 c0 -5 -4 -9 -10 -9 -5 0 -10 7
-10 16 0 8 5 12 10 9 6 -3 10 -10 10 -16z m-297 -13 c18 -8 64 -24 102 -36
121 -37 162 -62 156 -94 -1 -5 4 -13 11 -17 10 -7 8 -9 -5 -9 -10 0 -21 8 -24
18 -12 31 -43 43 -43 16 0 -14 -1 -14 -16 0 -8 9 -19 16 -24 16 -13 0 -19 -37
-7 -49 8 -8 7 -11 -4 -11 -8 0 -20 10 -28 21 -11 18 -11 23 1 30 9 6 10 11 2
17 -6 4 -15 14 -20 23 -8 13 -13 13 -34 3 l-24 -13 27 -10 c36 -14 34 -22 -3
-14 -39 7 -40 -12 -1 -25 23 -8 28 -15 24 -31 -4 -16 1 -22 22 -27 19 -5 23
-10 16 -17 -8 -8 -14 -8 -23 1 -14 14 -62 16 -53 2 3 -5 3 -14 0 -20 -8 -13
-52 11 -84 45 -13 14 -29 25 -37 25 -8 0 -14 6 -14 14 0 8 -10 22 -22 30 -22
16 -22 16 14 16 46 0 52 9 33 54 -17 40 -17 40 19 26 30 -11 36 3 9 19 -26 15
-6 13 30 -3z m-236 -16 c3 -11 13 -20 22 -20 10 0 26 -7 37 -15 17 -13 17 -14
2 -15 -9 0 -20 5 -23 10 -3 6 -19 10 -35 10 -28 0 -57 29 -43 44 13 13 35 5
40 -14z m-1255 -5 c0 -5 -5 -11 -11 -13 -6 -2 -11 4 -11 13 0 9 5 15 11 13 6
-2 11 -8 11 -13z m338 -3 c0 -12 -8 -18 -25 -20 -19 -1 -25 3 -25 18 0 15 7
20 25 20 17 0 25 -5 25 -18z m60 8 c0 -5 -4 -10 -10 -10 -5 0 -10 5 -10 10 0
6 5 10 10 10 6 0 10 -4 10 -10z m-358 -37 c-3 -18 1 -30 13 -40 15 -10 16 -16
7 -25 -9 -9 -13 -7 -18 8 -4 10 -11 22 -16 25 -5 3 -4 18 1 32 13 35 20 35 13
0z m-142 -4 c0 -6 -4 -7 -10 -4 -5 3 -10 11 -10 16 0 6 5 7 10 4 6 -3 10 -11
10 -16z m740 12 c0 -11 -69 -20 -76 -10 -2 4 10 10 28 12 18 2 36 5 41 5 4 1
7 -2 7 -7z m764 -6 c4 -11 -1 -15 -19 -15 -16 0 -25 6 -25 15 0 8 9 15 19 15
10 0 21 -7 25 -15z m391 -3 c-3 -3 -11 0 -18 7 -9 10 -8 11 6 5 10 -3 15 -9
12 -12z m-45 -12 c0 -5 -2 -10 -4 -10 -3 0 -8 5 -11 10 -3 6 -1 10 4 10 6 0
11 -4 11 -10z m-1279 -24 c16 -11 12 -12 -24 -12 -33 1 -43 5 -45 20 -3 16 0
18 24 12 15 -4 35 -13 45 -20z m262 9 c-3 -9 -8 -14 -10 -11 -3 3 -2 9 2 15 9
16 15 13 8 -4z m457 -10 c0 -14 22 -20 63 -17 10 1 17 -5 17 -17 0 -10 7 -22
16 -25 14 -5 16 -1 11 30 -5 29 -3 35 9 30 9 -3 20 -6 25 -6 4 0 6 -7 3 -15
-4 -10 0 -15 15 -15 12 0 24 -7 27 -15 4 -8 12 -15 20 -15 8 0 14 -9 14 -20 0
-11 7 -23 15 -26 8 -4 15 -10 15 -15 0 -13 -28 -11 -32 2 -2 7 -12 7 -33 -1
-23 -9 -26 -13 -15 -20 8 -6 24 -10 35 -11 11 0 14 -3 8 -6 -7 -2 -13 -11 -13
-19 0 -8 -3 -14 -7 -14 -14 0 -43 34 -43 50 0 26 -24 70 -38 70 -10 0 -12 -11
-7 -44 l7 -44 -48 12 c-38 10 -50 17 -52 34 -3 20 0 22 22 16 21 -5 25 -3 20
10 -3 9 -15 16 -26 16 -15 0 -18 5 -13 20 4 14 2 20 -8 20 -19 0 -40 26 -32
40 9 15 25 12 25 -5z m614 9 c18 -7 12 -24 -10 -24 -8 0 -14 7 -14 15 0 17 2
18 24 9z m-1844 -35 c0 -11 5 -17 10 -14 6 3 10 2 10 -4 0 -5 -5 -13 -11 -17
-6 -3 -9 -14 -6 -24 3 -13 0 -16 -14 -13 -23 6 -25 19 -4 27 21 8 19 28 -2 24
-10 -2 -19 5 -21 16 -2 11 0 16 7 12 6 -4 11 -2 11 3 0 6 5 11 10 11 6 0 10
-9 10 -21z m1933 0 c-7 -25 -46 -22 -51 4 -3 13 3 17 26 17 25 0 29 -3 25 -21z
m-1548 -37 c12 -52 39 -72 55 -42 6 11 17 20 25 20 7 0 15 5 17 11 5 16 41 3
55 -21 11 -17 10 -18 -4 -13 -14 6 -13 1 5 -21 25 -32 25 -35 13 -54 -7 -12
-12 -12 -29 -1 -24 15 -45 3 -22 -12 11 -7 6 -8 -15 -3 -16 4 -36 12 -44 20
-12 11 -16 11 -26 -3 -10 -13 -14 -12 -29 12 -12 18 -14 31 -8 37 12 12 -5 75
-27 102 -15 17 -15 18 4 15 13 -3 22 -17 30 -47z m212 20 c-8 -8 -20 -11 -27
-7 -16 10 7 35 27 28 13 -5 13 -7 0 -21z m-979 -89 c27 -29 23 -72 -9 -104
-19 -19 -19 -19 -19 6 0 14 -5 25 -11 25 -6 0 -9 -7 -5 -15 7 -20 -3 -19 -26
2 -24 21 -23 65 2 88 19 18 20 17 20 -6 1 -29 22 -59 41 -59 10 1 9 4 -3 11
-9 5 -15 16 -12 23 3 8 -7 34 -22 58 -27 42 -28 42 -35 18 -6 -21 -7 -19 -8
13 l-1 39 33 -37 c17 -20 42 -48 55 -62z m316 65 c-4 -6 -2 -13 3 -17 6 -3 22
-27 36 -53 21 -39 23 -46 8 -37 -9 7 -23 26 -31 43 -11 27 -13 28 -17 11 -8
-31 -20 -40 -38 -25 -21 17 -19 42 6 74 19 24 48 28 33 4z m259 -10 c6 -22 5
-22 -8 -4 -17 22 -20 40 -6 32 5 -3 11 -16 14 -28z m51 8 c-3 -9 -10 -16 -15
-16 -6 0 -5 9 1 21 13 24 24 20 14 -5z m-184 -1 c0 -8 -4 -15 -10 -15 -5 0
-10 7 -10 15 0 8 5 15 10 15 6 0 10 -7 10 -15z m922 -1 c25 -13 29 -20 26 -46
-3 -19 0 -32 9 -35 7 -3 13 -13 13 -22 -1 -14 -2 -14 -14 2 -14 18 -56 24 -56
7 0 -6 12 -16 28 -22 l27 -12 -30 -4 c-35 -4 -59 22 -50 55 3 15 -1 25 -12 32
-10 5 -15 13 -11 16 4 4 17 0 30 -9 37 -26 55 -20 28 9 -16 17 -33 25 -49 23
-13 -2 -26 3 -28 10 -7 18 51 15 89 -4z m-292 -9 c19 -10 27 -20 24 -30 -7
-18 -9 -18 -34 -2 -17 10 -22 9 -29 -2 -7 -11 -13 -9 -31 9 -18 18 -20 24 -9
31 21 13 46 11 79 -6z m170 -24 c14 -16 30 -45 36 -65 l11 -35 -28 14 c-15 8
-29 11 -31 5 -2 -5 -20 -16 -40 -25 l-38 -15 0 39 c0 23 -6 44 -15 51 -18 15
-16 56 3 53 6 -2 12 2 12 8 0 22 64 0 90 -30z m345 -16 c0 -17 -4 -25 -17 -25
-23 0 -29 13 -22 50 6 28 8 30 22 16 9 -8 16 -27 17 -41z m-900 6 c5 -17 4
-22 -6 -19 -8 3 -15 18 -17 34 -4 33 11 24 23 -15z m299 -3 c12 -13 39 -38 59
-55 51 -45 35 -42 -20 3 -24 20 -47 34 -50 30 -6 -6 -32 23 -33 37 0 14 21 7
44 -15z m511 -30 c26 -5 31 -28 6 -28 -12 0 -21 -6 -21 -15 0 -8 -4 -15 -9
-15 -17 0 -29 25 -33 69 l-4 43 22 -25 c12 -14 29 -27 39 -29z m-1058 21 c-3
-12 0 -28 9 -36 21 -22 17 -39 -5 -19 -24 22 -34 76 -13 76 10 0 13 -7 9 -21z
m1480 -37 c-9 -2 -17 -9 -17 -15 0 -16 -20 14 -20 30 0 10 6 10 27 0 20 -9 23
-13 10 -15z m-837 8 c0 -5 -2 -10 -4 -10 -3 0 -8 5 -11 10 -3 6 -1 10 4 10 6
0 11 -4 11 -10z m-83 -46 c-12 -13 -37 6 -37 28 l0 22 22 -21 c12 -13 19 -25
15 -29z m-1137 15 c0 -5 -4 -9 -10 -9 -5 0 -10 7 -10 16 0 8 5 12 10 9 6 -3
10 -10 10 -16z m865 11 c3 -5 1 -10 -4 -10 -6 0 -11 5 -11 10 0 6 2 10 4 10 3
0 8 -4 11 -10z m883 -10 c-2 -8 -13 -15 -25 -15 -12 0 -25 -4 -29 -8 -14 -14
-21 -7 -17 17 4 21 10 24 39 23 25 -2 34 -6 32 -17z m57 11 c9 -16 -9 -20 -23
-5 -10 12 -10 14 2 14 8 0 17 -4 21 -9z m-1611 -17 c9 -9 22 -17 29 -18 36 -8
116 -53 147 -82 19 -19 38 -34 41 -34 11 0 49 -66 49 -85 0 -15 -6 -16 -37
-10 -21 4 -41 13 -46 20 -4 8 -14 12 -21 9 -17 -7 -30 12 -16 21 7 5 5 12 -7
21 -26 19 -36 17 -30 -6 6 -24 -1 -25 -27 -5 -11 8 -14 15 -8 15 16 0 15 25
-2 39 -11 9 -18 8 -30 -4 -9 -9 -21 -13 -27 -9 -8 5 -8 9 1 14 10 6 9 18 -6
54 -10 25 -24 46 -31 46 -7 0 -10 7 -7 15 8 19 9 19 28 -1z m458 -26 c-7 -7
-12 -8 -12 -2 0 6 3 14 7 17 3 4 9 5 12 2 2 -3 -1 -11 -7 -17z m1160 0 c-9 -9
-15 -9 -24 0 -9 9 -7 12 12 12 19 0 21 -3 12 -12z m-264 -14 c-1 -5 -9 -9 -16
-10 -10 -2 -11 1 -1 12 12 14 24 13 17 -2z m117 -4 c3 -11 13 -20 21 -20 8 0
14 -5 14 -10 0 -7 -6 -7 -19 0 -11 5 -27 7 -35 4 -12 -5 -16 0 -16 20 0 31 26
36 35 6z m-605 -6 c0 -8 -4 -12 -10 -9 -5 3 -10 10 -10 16 0 5 5 9 10 9 6 0
10 -7 10 -16z m139 -8 c6 -4 11 -16 11 -26 0 -17 -3 -17 -45 7 -25 13 -45 28
-45 33 0 8 60 -2 79 -14z m-1149 -8 c0 -13 3 -34 6 -48 6 -24 6 -25 -9 -5 -18
22 -23 75 -7 75 6 0 10 -10 10 -22z m420 1 c0 -5 -4 -9 -10 -9 -5 0 -10 7 -10
16 0 8 5 12 10 9 6 -3 10 -10 10 -16z m545 11 c3 -5 2 -10 -4 -10 -5 0 -13 5
-16 10 -3 6 -2 10 4 10 5 0 13 -4 16 -10z m-338 -30 c-5 -21 -2 -32 10 -38 19
-11 0 -27 -22 -18 -17 6 -19 25 -5 60 13 35 24 33 17 -4z m775 12 c-3 -8 -13
-11 -26 -8 -11 3 -27 6 -33 6 -7 0 -13 4 -13 8 0 4 17 8 39 7 28 0 37 -4 33
-13z m-1354 -20 c2 -12 7 -22 12 -22 5 0 6 -15 3 -34 -6 -39 10 -55 33 -32 8
9 12 16 7 16 -4 0 -8 10 -9 23 0 12 -4 31 -9 42 -5 14 1 10 19 -10 14 -16 25
-39 25 -50 -2 -45 1 -75 10 -75 4 0 7 16 5 36 -1 19 1 34 5 32 31 -12 121 -64
121 -69 0 -4 -9 -9 -20 -12 -11 -3 -20 -10 -20 -17 0 -14 41 -3 56 15 8 11 22
10 75 -7 76 -25 71 -21 63 -42 -3 -9 -15 -16 -25 -16 -10 0 -19 -6 -19 -12 0
-13 44 -38 67 -38 7 0 13 -4 13 -8 0 -11 46 -32 68 -32 14 1 12 5 -8 22 l-25
21 24 -6 c17 -4 24 -1 28 14 6 20 20 24 40 11 14 -9 15 -69 2 -94 -5 -10 -5
-19 0 -22 39 -24 70 -206 35 -206 -14 0 -14 19 1 86 7 33 -10 58 -25 35 -5 -9
-10 -8 -19 3 -8 10 -9 16 -1 21 13 8 13 35 0 35 -5 0 -10 -6 -10 -12 0 -7 -12
-24 -25 -37 -14 -12 -23 -27 -20 -31 3 -5 1 -11 -5 -15 -5 -3 -10 -15 -10 -26
0 -12 -5 -19 -12 -16 -9 2 -12 20 -10 50 4 50 1 53 -28 37 -14 -8 -19 -5 -25
13 -5 16 -8 18 -11 7 -3 -8 -11 -26 -17 -39 -9 -19 -9 -25 1 -28 6 -3 12 -11
12 -18 0 -7 7 -16 16 -19 24 -9 5 -28 -23 -22 -30 8 -83 -21 -83 -46 0 -25
-17 -31 -29 -11 -9 16 -11 15 -20 -8 -5 -15 -19 -29 -30 -32 -24 -6 -51 -62
-51 -104 l0 -27 -21 23 c-12 12 -19 25 -16 28 3 3 -6 16 -20 29 -19 18 -30 21
-44 14 -28 -16 -30 -26 -8 -46 17 -15 22 -16 29 -4 7 12 10 11 16 -5 4 -11 12
-24 18 -28 6 -5 -14 -5 -44 -1 -30 3 -75 8 -99 10 -24 2 -48 9 -53 16 -5 7
-13 20 -18 28 -4 8 -12 12 -16 7 -4 -4 0 -15 10 -26 15 -17 15 -19 1 -25 -28
-10 -35 -7 -47 22 -14 36 -17 61 -5 59 24 -5 15 23 -12 39 -25 15 -31 25 -31
54 0 20 -5 41 -12 48 -9 9 -9 12 0 12 7 0 15 -7 18 -15 4 -9 13 -13 24 -10 9
3 23 -1 30 -10 12 -15 40 -21 40 -8 0 12 -33 43 -45 43 -18 0 -33 21 -39 55
-3 17 -3 24 0 18 12 -27 22 -11 17 28 -5 33 -3 41 8 37 8 -3 15 -22 17 -46 3
-38 6 -42 29 -42 21 0 23 2 13 15 -6 8 -9 19 -5 25 4 6 1 18 -6 26 -6 8 -9 17
-6 20 3 3 11 -2 18 -12 62 -77 116 -100 93 -40 -3 9 -12 16 -18 16 -7 0 -12
15 -12 35 0 25 -8 43 -27 63 -15 14 -27 21 -27 14 0 -19 -22 -14 -55 13 -19
16 -25 25 -15 25 12 0 11 4 -4 15 -11 8 -16 18 -11 22 4 5 10 2 12 -4 3 -7 9
-13 14 -13 9 0 5 46 -8 93 -2 9 0 17 6 17 12 0 30 -57 28 -90 -2 -19 3 -25 18
-25 24 0 28 38 7 73 -13 22 -12 23 7 13 24 -13 35 -45 32 -88 -3 -36 22 -56
57 -46 33 8 27 37 -12 59 -11 5 -20 22 -20 36 -1 15 -10 36 -20 47 -11 12 -16
24 -13 27 9 10 37 -16 37 -33 0 -11 3 -13 13 -5 8 7 19 6 37 -3 55 -31 55 -8
1 28 -37 25 -49 56 -24 64 14 5 -1 93 -18 105 -11 7 -9 8 6 6 12 -2 21 -12 23
-26z m89 13 c9 -25 -4 -29 -17 -6 -7 15 -7 21 0 21 6 0 13 -7 17 -15z m619 -6
c19 -22 19 -22 -3 -10 -13 6 -23 16 -23 21 0 15 5 12 26 -11z m301 -1 c-3 -8
-6 -5 -6 6 -1 11 2 17 5 13 3 -3 4 -12 1 -19z m201 -23 c37 -52 37 -55 17 -55
-8 0 -15 6 -15 14 0 8 -14 17 -31 21 -21 5 -29 11 -25 22 3 8 6 21 6 29 0 25
15 15 48 -31z m252 31 c0 -11 -19 -15 -25 -6 -3 5 1 10 9 10 9 0 16 -2 16 -4z
m187 -32 c-9 -9 -28 6 -21 18 4 6 10 6 17 -1 6 -6 8 -13 4 -17z m-1297 5 c0
-5 5 -7 10 -4 19 12 48 -6 53 -32 l5 -27 -17 22 c-11 15 -20 19 -30 12 -10 -6
-19 -3 -28 8 -15 21 -16 32 -3 32 6 0 10 -5 10 -11z m690 -10 c0 -5 -4 -9 -10
-9 -5 0 -10 7 -10 16 0 8 5 12 10 9 6 -3 10 -10 10 -16z m350 1 c0 -5 -12 -10
-26 -10 -14 0 -23 4 -19 10 3 6 15 10 26 10 10 0 19 -4 19 -10z m-744 -11 c3
-6 2 -15 -4 -21 -6 -6 -11 -2 -15 11 -5 22 7 29 19 10z m-712 -25 c3 -9 13
-14 21 -10 22 8 24 -7 4 -26 -18 -17 -19 -16 -34 12 -17 34 -18 40 -6 40 5 0
12 -7 15 -16z m-74 -10 c0 -8 -4 -12 -10 -9 -5 3 -10 10 -10 16 0 5 5 9 10 9
6 0 10 -7 10 -16z m620 6 c0 -5 -4 -10 -10 -10 -5 0 -10 5 -10 10 0 6 5 10 10
10 6 0 10 -4 10 -10z m827 -6 c-3 -3 -12 -4 -19 -1 -8 3 -5 6 6 6 11 1 17 -2
13 -5z m40 0 c-3 -3 -12 -4 -19 -1 -8 3 -5 6 6 6 11 1 17 -2 13 -5z m-677 -49
c-9 -11 -9 -15 -1 -15 6 0 11 -7 11 -15 0 -18 -27 -20 -33 -2 -2 6 3 26 11 42
9 17 17 25 20 17 2 -7 -2 -19 -8 -27z m110 25 c0 -5 -2 -10 -4 -10 -3 0 -8 5
-11 10 -3 6 -1 10 4 10 6 0 11 -4 11 -10z m-913 -8 c17 13 31 2 16 -13 -13
-13 -53 -3 -53 14 0 8 3 8 12 -1 8 -8 15 -9 25 0z m593 -11 c10 -20 14 -71 5
-71 -3 0 -13 5 -23 11 -13 8 -17 20 -14 45 5 38 16 43 32 15z m50 -30 c0 -41
4 -51 20 -56 22 -7 27 -25 8 -25 -29 1 -42 21 -48 74 -5 43 -3 56 7 56 9 0 13
-15 13 -49z m224 33 c24 -9 19 -24 -8 -22 -15 1 -22 7 -19 15 6 15 6 15 27 7z
m-927 -36 c-3 -8 -6 -5 -6 6 -1 11 2 17 5 13 3 -3 4 -12 1 -19z m593 -4 c0 -8
-4 -14 -10 -14 -5 0 -10 9 -10 21 0 11 5 17 10 14 6 -3 10 -13 10 -21z m413
-24 c-11 -9 -22 -22 -26 -30 -3 -10 -6 -7 -6 8 -1 13 4 32 10 43 9 17 13 18
26 8 13 -12 13 -15 -4 -29z m-127 -22 c3 -5 11 -4 19 2 9 8 15 8 20 0 3 -5 2
-10 -3 -10 -5 0 -12 -9 -15 -21 -4 -16 -12 -20 -34 -17 -23 2 -29 8 -31 35 -3
27 -1 31 18 26 11 -3 23 -10 26 -15z m-224 -22 c10 -7 15 -15 12 -18 -6 -7
-54 15 -54 25 0 11 23 8 42 -7z m138 -46 c0 -22 -4 -40 -10 -40 -5 0 -10 18
-10 40 0 22 5 40 10 40 6 0 10 -18 10 -40z m185 11 c-3 -6 -13 -11 -21 -11
-17 0 -19 -27 -1 -33 8 -3 5 -11 -10 -26 -27 -26 -45 -27 -60 -2 -10 16 -8 22
13 42 24 22 75 49 83 43 1 -1 0 -7 -4 -13z m-155 -76 c-6 -7 -8 -24 -5 -37 8
-32 -13 -51 -37 -34 -15 11 -16 17 -6 44 7 18 18 32 24 32 6 0 15 10 19 23 6
19 8 20 12 4 3 -10 0 -24 -7 -32z m-775 -5 c3 -5 2 -10 -4 -10 -5 0 -13 5 -16
10 -3 6 -2 10 4 10 5 0 13 -4 16 -10z m819 -59 c6 -36 4 -42 -9 -38 -9 4 -15
1 -15 -8 0 -8 -5 -15 -11 -15 -6 0 -8 12 -5 30 3 17 9 44 12 61 8 39 20 27 28
-30z m-754 29 c9 -16 8 -18 -5 -14 -8 4 -15 12 -15 20 0 20 7 17 20 -6z m-90
0 c0 -5 -4 -10 -10 -10 -5 0 -10 5 -10 10 0 6 5 10 10 10 6 0 10 -4 10 -10z
m908 -43 c-13 -41 -28 -49 -28 -15 0 19 29 63 36 55 2 -2 -2 -20 -8 -40z m12
-67 c8 -5 11 -12 8 -16 -4 -3 -14 1 -23 10 -18 17 -9 21 15 6z m-224 -24 c1
-14 -5 -27 -14 -31 -20 -7 -21 -5 -15 28 7 34 27 36 29 3z m-731 -162 c17 -13
18 -16 5 -24 -19 -12 -30 -12 -30 -1 0 5 -3 16 -6 25 -8 20 5 20 31 0z"/>
<path d="M3316 3403 c-3 -3 -3 -10 0 -14 7 -12 34 -11 34 0 0 11 -26 22 -34
14z"/>
<path d="M3475 3311 c-7 -12 33 -51 52 -51 18 0 16 19 -2 26 -8 4 -15 12 -15
20 0 16 -26 19 -35 5z"/>
<path d="M3200 3287 c0 -9 16 -14 50 -15 52 -1 67 11 28 22 -40 10 -78 7 -78
-7z"/>
<path d="M2890 3228 c0 -19 25 -41 40 -36 6 2 0 14 -14 27 -20 19 -26 21 -26
9z"/>
<path d="M3500 3196 c0 -9 7 -16 16 -16 17 0 14 22 -4 28 -7 2 -12 -3 -12 -12z"/>
<path d="M2955 3190 c-3 -5 -1 -10 4 -10 6 0 11 5 11 10 0 6 -2 10 -4 10 -3 0
-8 -4 -11 -10z"/>
<path d="M2936 3124 c-8 -21 -1 -28 18 -21 9 4 13 13 10 22 -8 20 -20 19 -28
-1z"/>
<path d="M3200 3080 c0 -5 7 -10 16 -10 8 0 12 5 9 10 -3 6 -10 10 -16 10 -5
0 -9 -4 -9 -10z"/>
<path d="M1710 3318 c0 -7 5 -20 10 -28 7 -12 12 -12 21 -3 9 9 9 16 -1 28
-15 18 -30 20 -30 3z"/>
<path d="M1776 3223 c-11 -11 -6 -23 9 -23 8 0 15 4 15 9 0 13 -16 22 -24 14z"/>
<path d="M1577 3196 c-6 -15 1 -26 15 -26 4 0 8 9 8 20 0 23 -15 27 -23 6z"/>
<path d="M1746 3103 c-3 -3 -6 -15 -6 -25 0 -10 -7 -21 -15 -24 -8 -4 -15 -12
-15 -20 0 -15 -66 -84 -80 -84 -17 0 -19 -44 -2 -56 26 -20 32 -17 26 14 -5
23 -1 32 20 45 14 9 28 17 31 17 12 0 -8 -95 -21 -103 -24 -14 -15 -25 18 -22
32 2 54 25 24 25 -23 0 -20 32 7 77 19 33 22 35 25 16 2 -15 11 -23 28 -25
l24 -3 -25 -27 c-26 -28 -32 -48 -15 -48 6 0 10 -5 10 -12 0 -12 67 -78 80
-78 3 0 13 11 20 25 9 16 22 25 38 25 29 0 25 21 -6 35 -13 6 -22 19 -22 32 0
12 -4 25 -10 28 -5 3 -10 17 -10 30 0 13 -5 27 -10 30 -6 4 -8 11 -4 16 4 6
13 4 24 -6 16 -14 19 -14 33 0 21 20 24 19 31 -9 3 -13 13 -26 21 -30 23 -8
19 31 -5 51 -13 12 -18 24 -13 41 4 17 2 23 -8 22 -31 -5 -49 1 -49 15 0 19
-16 20 -23 1 -3 -9 4 -21 19 -30 13 -9 24 -22 24 -30 0 -18 -38 -15 -50 4 -8
13 -13 13 -37 -2 -24 -14 -31 -14 -46 -3 -14 10 -17 21 -12 48 6 32 -4 55 -19
40z m114 -213 c0 -5 -7 -7 -16 -3 -9 3 -20 0 -24 -7 -4 -7 -13 -9 -19 -6 -19
12 -12 25 17 28 31 4 42 1 42 -12z m10 -62 c0 -10 -4 -18 -10 -18 -5 0 -10 5
-10 11 0 5 -4 8 -9 4 -6 -3 -15 3 -20 14 -9 17 -7 20 12 23 24 4 37 -8 37 -34z"/>
<path d="M2584 3095 c-9 -23 14 -45 26 -25 5 8 8 19 7 24 -6 17 -27 18 -33 1z"/>
<path d="M1607 3044 c-8 -8 1 -24 14 -24 5 0 9 7 9 15 0 15 -12 20 -23 9z"/>
<path d="M2550 3031 c0 -14 5 -19 15 -14 17 6 15 25 -3 31 -7 2 -12 -5 -12
-17z"/>
<path d="M1436 3014 c-7 -19 2 -37 15 -29 12 8 12 45 0 45 -5 0 -12 -7 -15
-16z"/>
<path d="M1585 2990 c3 -5 8 -10 11 -10 2 0 4 5 4 10 0 6 -5 10 -11 10 -5 0
-7 -4 -4 -10z"/>
<path d="M1510 2968 c0 -9 -4 -18 -10 -20 -6 -2 -6 -14 -1 -33 7 -24 10 -27
16 -13 4 9 4 22 0 29 -4 6 -1 15 6 20 11 6 11 11 1 21 -9 9 -12 9 -12 -4z"/>
<path d="M1550 2923 c0 -16 -7 -38 -15 -49 -18 -24 -20 -74 -2 -74 6 0 23 12
37 27 l25 26 -25 -7 c-14 -4 -20 -4 -13 1 17 12 21 95 6 100 -9 3 -13 -5 -13
-24z"/>
<path d="M2050 2920 c0 -13 28 -25 38 -16 3 4 0 11 -8 16 -20 13 -30 12 -30 0z"/>
<path d="M1910 2890 c0 -11 5 -20 10 -20 6 0 10 9 10 20 0 11 -4 20 -10 20 -5
0 -10 -9 -10 -20z"/>
<path d="M2007 2883 c-13 -13 -7 -32 8 -27 8 4 15 12 15 20 0 15 -12 19 -23 7z"/>
<path d="M1352 2808 c2 -6 10 -14 16 -16 7 -2 10 2 6 12 -7 18 -28 22 -22 4z"/>
<path d="M1501 2794 c0 -11 3 -14 6 -6 3 7 2 16 -1 19 -3 4 -6 -2 -5 -13z"/>
<path d="M1418 2770 c-10 -11 -14 -27 -11 -40 7 -26 28 -20 27 9 0 11 3 21 8
21 4 0 8 7 8 15 0 20 -11 18 -32 -5z"/>
<path d="M1765 2770 c-3 -5 -1 -10 4 -10 6 0 11 5 11 10 0 6 -2 10 -4 10 -3 0
-8 -4 -11 -10z"/>
<path d="M1376 2504 c-7 -18 0 -34 15 -34 5 0 9 11 9 25 0 28 -15 34 -24 9z"/>
<path d="M1150 2751 c0 -5 9 -11 21 -14 16 -4 18 -3 8 9 -13 16 -29 19 -29 5z"/>
<path d="M1610 2561 c0 -6 5 -13 10 -16 6 -3 10 1 10 9 0 9 -4 16 -10 16 -5 0
-10 -4 -10 -9z"/>
<path d="M1240 2300 c0 -5 5 -10 11 -10 5 0 7 5 4 10 -3 6 -8 10 -11 10 -2 0
-4 -4 -4 -10z"/>
<path d="M1200 2219 c0 -5 5 -7 10 -4 6 3 10 8 10 11 0 2 -4 4 -10 4 -5 0 -10
-5 -10 -11z"/>
<path d="M1160 2172 c0 -10 22 -32 32 -32 15 0 8 28 -8 34 -21 8 -24 8 -24 -2z"/>
<path d="M1275 2160 c-4 -7 -1 -16 6 -21 17 -10 26 8 11 23 -6 6 -12 6 -17 -2z"/>
<path d="M2262 2188 c-14 -14 -16 -38 -4 -38 12 0 32 23 32 37 0 16 -12 17
-28 1z"/>
<path d="M1225 2040 c3 -5 8 -10 11 -10 2 0 4 5 4 10 0 6 -5 10 -11 10 -5 0
-7 -4 -4 -10z"/>
<path d="M1300 1987 c0 -8 7 -20 15 -27 12 -10 15 -10 15 3 0 8 -7 20 -15 27
-12 10 -15 10 -15 -3z"/>
<path d="M1177 1838 c18 -18 46 -50 63 -70 18 -21 37 -35 42 -32 7 4 4 10 -6
16 -9 5 -22 21 -30 36 -21 40 -64 82 -83 82 -13 0 -9 -8 14 -32z"/>
<path d="M1320 1815 c0 -8 5 -15 10 -15 6 0 10 7 10 15 0 8 -4 15 -10 15 -5 0
-10 -7 -10 -15z"/>
<path d="M1122 1789 c2 -7 10 -15 17 -17 8 -3 12 1 9 9 -2 7 -10 15 -17 17 -8
3 -12 -1 -9 -9z"/>
<path d="M1280 1712 c0 -18 33 -74 46 -79 8 -3 14 -11 14 -19 0 -8 7 -14 15
-14 20 0 19 12 -5 38 -11 12 -20 26 -20 32 0 10 -36 50 -45 50 -3 0 -5 -4 -5
-8z"/>
<path d="M1230 1700 c0 -5 5 -10 11 -10 5 0 7 5 4 10 -3 6 -8 10 -11 10 -2 0
-4 -4 -4 -10z"/>
<path d="M1036 1638 c-7 -28 -6 -34 4 -31 15 4 98 -37 130 -64 27 -22 33 -24
46 -12 12 13 7 20 -41 52 -30 20 -61 37 -68 37 -7 0 -23 9 -35 20 -27 25 -28
25 -36 -2z"/>
<path d="M1200 1645 c0 -26 25 -85 36 -85 18 0 67 54 53 59 -5 1 -18 -4 -29
-14 -17 -15 -19 -15 -24 3 -7 21 -36 51 -36 37z"/>
<path d="M1362 1578 c3 -7 13 -15 22 -16 12 -3 17 1 14 10 -3 7 -13 15 -22 16
-12 3 -17 -1 -14 -10z"/>
<path d="M962 1535 c1 -19 5 -35 10 -35 10 0 78 -68 78 -78 0 -4 9 -13 20 -20
19 -11 18 -8 -6 38 -17 33 -34 52 -50 56 -14 4 -24 14 -24 24 0 25 -10 50 -21
50 -5 0 -8 -16 -7 -35z"/>
<path d="M1265 1560 c-4 -6 8 -10 30 -10 22 0 34 4 30 10 -3 6 -17 10 -30 10
-13 0 -27 -4 -30 -10z"/>
<path d="M1216 1501 c-4 -6 -3 -11 2 -11 5 0 15 -11 22 -25 8 -16 17 -22 23
-16 6 6 0 20 -16 36 -16 18 -27 23 -31 16z"/>
<path d="M1160 1434 c0 -8 5 -12 10 -9 6 3 10 10 10 16 0 5 -4 9 -10 9 -5 0
-10 -7 -10 -16z"/>
<path d="M960 1416 c0 -2 8 -10 18 -17 15 -13 16 -12 3 4 -13 16 -21 21 -21
13z"/>
<path d="M3260 2560 c0 -5 7 -10 16 -10 8 0 12 5 9 10 -3 6 -10 10 -16 10 -5
0 -9 -4 -9 -10z"/>
<path d="M3427 2533 c-4 -3 -7 -15 -7 -25 0 -26 24 -17 28 10 3 21 -8 29 -21
15z"/>
<path d="M3406 2123 c-37 -3 -49 -8 -53 -24 -4 -13 -14 -19 -34 -19 -37 0
-193 -80 -180 -93 10 -10 41 -7 155 13 52 9 82 9 120 1 97 -21 201 -56 233
-78 17 -13 35 -23 41 -23 11 0 150 -145 204 -211 19 -24 41 -59 48 -78 13 -33
13 -34 -28 -70 -22 -20 -42 -47 -44 -60 -5 -42 -28 -47 -126 -27 -96 19 -146
13 -202 -24 -39 -27 -120 -60 -145 -60 -12 0 -39 7 -59 15 -29 12 -40 13 -56
3 -11 -7 -20 -17 -20 -23 0 -5 -31 -23 -68 -40 -122 -54 -183 -135 -190 -250
-5 -75 22 -154 58 -172 22 -11 25 -10 27 5 1 9 5 47 8 83 6 62 10 71 54 120
32 36 56 54 72 54 27 0 27 0 6 73 -9 28 -12 52 -7 52 5 0 12 -9 15 -20 4 -11
11 -18 16 -15 9 6 14 -29 10 -72 -1 -15 7 -25 29 -35 21 -9 30 -20 30 -37 0
-17 -4 -22 -17 -17 -26 10 -33 -12 -33 -105 0 -97 14 -143 60 -191 l30 -31 0
69 c0 114 45 247 107 318 21 24 35 30 80 34 l56 5 -7 -54 c-7 -58 -2 -70 29
-86 31 -16 105 -25 105 -13 0 5 5 10 10 10 6 0 10 -7 10 -15 0 -9 7 -18 15
-21 18 -7 55 -69 55 -93 0 -24 86 -101 112 -101 11 0 22 -8 25 -20 6 -22 39
-28 45 -8 3 7 26 11 64 10 32 -1 84 2 114 8 72 14 149 23 182 22 22 -1 28 4
33 29 5 23 2 36 -14 53 -12 12 -21 28 -21 34 0 7 -9 17 -20 24 -15 10 -20 24
-20 56 l0 43 -47 -7 c-56 -8 -73 -19 -73 -47 0 -19 -1 -19 -20 3 -15 17 -20
36 -19 73 2 33 -2 52 -12 57 -27 17 7 31 80 32 68 0 71 2 71 24 0 32 -28 46
-56 27 -26 -17 -64 -9 -64 13 0 15 7 17 58 14 28 -1 33 2 30 17 -3 13 -12 17
-32 16 -17 -1 -38 7 -54 22 -15 13 -38 33 -52 45 l-25 21 31 -15 c20 -10 45
-13 68 -9 32 5 36 3 36 -16 0 -44 18 -18 24 35 7 60 1 80 -15 52 -10 -17 -76
-44 -86 -34 -3 3 9 13 27 23 18 10 46 29 62 43 l30 25 -17 45 c-24 64 -75 169
-86 176 -5 3 -15 20 -23 37 -7 18 -22 42 -32 54 -11 13 -37 45 -58 73 -84 108
-301 225 -459 248 -76 12 -102 12 -201 5z m464 -193 c0 -5 -2 -10 -4 -10 -3 0
-8 5 -11 10 -3 6 -1 10 4 10 6 0 11 -4 11 -10z m77 -50 c14 -11 32 -20 39 -20
7 0 16 -5 20 -11 13 -21 -60 2 -86 27 -30 29 -9 32 27 4z m-140 -30 c24 -30
12 -33 -17 -5 -16 16 -30 33 -30 38 0 10 28 -9 47 -33z m313 -245 c10 -12 10
-15 -4 -15 -9 0 -16 7 -16 15 0 8 2 15 4 15 2 0 9 -7 16 -15z m96 -120 c-33
-18 -36 -18 -36 -6 0 9 21 18 50 20 8 0 2 -6 -14 -14z m-261 -5 c3 -5 -1 -10
-10 -10 -9 0 -13 5 -10 10 3 6 8 10 10 10 2 0 7 -4 10 -10z m-295 -86 c0 -15
-6 -24 -15 -24 -21 0 -30 27 -15 45 16 19 30 10 30 -21z m111 3 c-13 -13 -31
0 -24 19 4 11 8 12 20 3 9 -8 10 -16 4 -22z m304 3 c3 -5 1 -10 -4 -10 -6 0
-11 -9 -11 -20 0 -11 5 -20 10 -20 6 0 10 -4 10 -10 0 -5 -4 -10 -9 -10 -9 0
-12 8 -27 63 -6 18 20 25 31 7z m-528 -37 c-8 -8 -21 -13 -28 -11 -9 3 -6 11
11 28 17 17 25 20 28 11 2 -7 -3 -20 -11 -28z m389 10 c-7 -7 -26 7 -26 19 0
6 6 6 15 -2 9 -7 13 -15 11 -17z m61 -49 c-6 -7 -37 7 -37 16 0 15 35 16 38 2
2 -7 2 -16 -1 -18z m-696 6 c25 -14 24 -35 -1 -37 -11 -1 -20 2 -20 7 0 5 -3
15 -6 24 -7 19 0 20 27 6z m174 -20 c30 -31 27 -35 -24 -32 -8 0 -21 -7 -28
-16 -12 -16 -12 -16 -13 0 0 9 5 20 10 23 6 3 10 17 10 31 0 32 10 30 45 -6z
m-95 -21 c0 -6 -4 -7 -10 -4 -5 3 -10 11 -10 16 0 6 5 7 10 4 6 -3 10 -11 10
-16z m320 6 c14 -16 10 -18 -14 -9 -9 3 -16 10 -16 15 0 14 16 11 30 -6z m154
-3 c2 -4 0 -14 -5 -22 -8 -13 -10 -13 -18 0 -10 15 -6 30 9 30 5 0 11 -4 14
-8z m-720 -53 c-37 -39 -44 -28 -8 14 16 18 31 29 33 24 2 -5 -9 -22 -25 -38z
m466 41 c0 -5 -7 -7 -15 -4 -8 4 -15 8 -15 10 0 2 7 4 15 4 8 0 15 -4 15 -10z
m407 -12 c-3 -8 -6 -5 -6 6 -1 11 2 17 5 13 3 -3 4 -12 1 -19z m-282 -8 c3 -5
1 -10 -4 -10 -6 0 -11 5 -11 10 0 6 2 10 4 10 3 0 8 -4 11 -10z m60 0 c3 -5
-1 -10 -9 -10 -9 0 -16 5 -16 10 0 6 4 10 9 10 6 0 13 -4 16 -10z m185 -40 c0
-5 -7 -7 -15 -4 -8 4 -15 8 -15 10 0 2 7 4 15 4 8 0 15 -4 15 -10z m-95 -10
c4 -6 -7 -10 -27 -10 -25 0 -29 3 -18 10 19 13 37 13 45 0z m-805 -75 c-11
-32 -21 -79 -21 -104 l-1 -46 -8 39 c-8 44 3 106 27 147 25 42 26 30 3 -36z
m360 55 c-8 -5 -26 -10 -40 -10 -20 0 -22 2 -10 10 8 5 26 10 40 10 20 0 22
-2 10 -10z m237 4 c-3 -3 -12 -4 -19 -1 -8 3 -5 6 6 6 11 1 17 -2 13 -5z m429
-21 c-7 -7 -26 7 -26 19 0 6 6 6 15 -2 9 -7 13 -15 11 -17z m-38 -31 c2 -7 -6
-12 -17 -12 -21 0 -27 11 -14 24 9 9 26 2 31 -12z m-359 -3 c34 -12 36 -16 18
-40 -12 -15 -15 -15 -47 0 -39 18 -53 51 -22 51 10 0 33 -5 51 -11z m261 -29
c0 -5 -9 -10 -20 -10 -11 0 -20 5 -20 10 0 6 9 10 20 10 11 0 20 -4 20 -10z
m0 -50 c0 -5 -2 -10 -4 -10 -3 0 -8 5 -11 10 -3 6 -1 10 4 10 6 0 11 -4 11
-10z m55 -30 c3 -5 -1 -10 -9 -10 -9 0 -16 5 -16 10 0 6 4 10 9 10 6 0 13 -4
16 -10z m-119 -87 c-6 -6 -46 56 -46 72 0 5 12 -8 26 -28 14 -21 23 -41 20
-44z m384 57 c25 -19 25 -19 5 -34 -28 -21 -42 -20 -48 5 -6 22 1 49 12 49 3
0 17 -9 31 -20z m-210 6 c0 -11 -19 -15 -25 -6 -3 5 1 10 9 10 9 0 16 -2 16
-4z m-20 -36 c0 -5 -2 -10 -4 -10 -3 0 -8 5 -11 10 -3 6 -1 10 4 10 6 0 11 -4
11 -10z m269 -77 c-10 -11 -14 -11 -20 -1 -10 17 -2 28 17 21 11 -4 12 -8 3
-20z m-444 7 c3 -5 1 -10 -4 -10 -6 0 -11 5 -11 10 0 6 2 10 4 10 3 0 8 -4 11
-10z m92 -26 c21 -18 24 -23 11 -24 -9 0 -29 11 -44 23 -37 32 -6 32 33 1z"/>
<path d="M4280 1152 c-8 -3 -25 -16 -38 -29 -18 -20 -20 -28 -11 -39 10 -13
15 -12 35 1 13 8 30 12 38 9 11 -4 16 0 16 13 0 27 -22 52 -40 45z"/>
</g>
</svg>
